<svg xmlns="http://www.w3.org/2000/svg" xmlns:xlink="http://www.w3.org/1999/xlink" viewBox="0 0 713.78 685.16"><defs><style>.cls-1{fill:url(#Dégradé_sans_nom_49);}.cls-2{fill:url(#Dégradé_sans_nom_11);}.cls-3{fill:#303030;}</style><linearGradient id="Dégradé_sans_nom_49" x1="477.08" y1="405.22" x2="327.29" y2="255.43" gradientUnits="userSpaceOnUse"><stop offset="0" stop-color="#ff5f6d"/><stop offset="0.14" stop-color="#ff6667"/><stop offset="0.35" stop-color="#ff7857"/><stop offset="0.59" stop-color="#ff973c"/><stop offset="0.86" stop-color="#ffc117"/><stop offset="1" stop-color="#ffdb00"/></linearGradient><linearGradient id="Dégradé_sans_nom_11" x1="230.49" y1="239.46" x2="366.12" y2="375.09" gradientUnits="userSpaceOnUse"><stop offset="0" stop-color="#1297e4"/><stop offset="1" stop-color="#33d2d7"/></linearGradient></defs><g id="Calque_6" data-name="Calque 6"><polygon class="cls-1" points="427.39 365.53 569.38 365.53 592.58 342.34 569.38 319.15 427.44 319.15 427.41 244.44 427.36 244.46 427.36 244.46 380.75 197.84 380.75 342.78 380.75 487.26 427.5 439.92 427.39 365.53"/><polygon class="cls-2" points="286.83 388.17 286.83 440.76 188.5 342.43 333.46 197.48 333.46 130.48 121.51 342.43 333.46 554.37 333.46 554.37 333.46 493.57 333.46 487.38 333.46 340.96 286.83 388.17"/><path class="cls-3" d="M380.61,630.24h0L649.42,361.43a26.82,26.82,0,0,0,0-37.92L380.61,54.7h0v75.83L592.54,342.47,380.61,554.41Z"/><path class="cls-3" d="M333.34,54.67h0L64.52,323.48a26.82,26.82,0,0,0,0,37.92L333.34,630.22h0V554.38L121.4,342.44,333.34,130.5Z"/></g></svg>