<svg id="Calque_1" data-name="Calque 1" xmlns="http://www.w3.org/2000/svg" xmlns:xlink="http://www.w3.org/1999/xlink" viewBox="0 0 240.1 234"><defs><style>.cls-1{fill:none;}.cls-2{clip-path:url(#clip-path);}.cls-3{fill:#f36;}</style><clipPath id="clip-path"><rect class="cls-1" width="240.1" height="234.1"/></clipPath></defs><g class="cls-2"><path class="cls-3" d="M148.8,102.3a26,26,0,0,0-11.3,2.6,22.53,22.53,0,0,0-8.5,7.4c-2.2,3.2-3.3,7.5-3.3,12.7a27.87,27.87,0,0,0,1.7,10.3,19.54,19.54,0,0,0,4.5,7.1,18,18,0,0,0,6.8,4,26.18,26.18,0,0,0,8.3,1.3c1.5,0,2.9-.1,4.2-.2a8.75,8.75,0,0,0,3.6-.5V103a25.58,25.58,0,0,0-2.7-.5c-1.1-.1-2.2-.2-3.3-.2"/><path class="cls-3" d="M176.7,160.8a76.37,76.37,0,0,1-16.3,4.8A88.21,88.21,0,0,1,145,167a49.72,49.72,0,0,1-21.5-4.5,34.86,34.86,0,0,1-15.1-13.6c-3.7-6.1-5.5-13.7-5.5-22.8a41,41,0,0,1,21.4-36.6c7-3.9,15.4-5.8,25.3-5.8a14.77,14.77,0,0,1,2.1.1c.9.1,1.9.1,3.1.2V52.4c0-.7.3-1.1,1-1.1h20.3a.82.82,0,0,1,1,.7v95.4c0,1.8.1,3.8.2,6s.3,4.1.4,5.8a1.43,1.43,0,0,1-1,1.6m-89.5,3.4c0,1.1-.5,1.6-1.4,1.6H66.2c-.9,0-1.3-.5-1.3-1.6V61.2c0-.9.5-1.3,1.4-1.3H85.8a1.13,1.13,0,0,1,1.3,1h0a.37.37,0,0,1,.1.3ZM197.6,0H42.6S0,.1,0,0V234H240.1l-.1-42.4V0H197.6"/></g></svg>