<?xml version="1.0" encoding="utf-8"?>
<!-- Generator: Adobe Illustrator 25.0.1, SVG Export Plug-In . SVG Version: 6.00 Build 0)  -->
<svg version="1.1" id="Calque_1" xmlns="http://www.w3.org/2000/svg" xmlns:xlink="http://www.w3.org/1999/xlink" x="0px" y="0px"
	 viewBox="0 0 240.1 234.1" style="enable-background:new 0 0 240.1 234.1;" xml:space="preserve">
<style type="text/css">
	.st0{clip-path:url(#SVGID_2_);}
	.st1{fill:#00C8F2;}
</style>
<g>
	<defs>
		<rect id="SVGID_1_" width="240.1" height="234.1"/>
	</defs>
	<clipPath id="SVGID_2_">
		<use xlink:href="#SVGID_1_"  style="overflow:visible;"/>
	</clipPath>
	<g class="st0">
		<path class="st1" d="M148.8,102.3c-3.9,0-7.8,0.9-11.3,2.6c-3.4,1.7-6.4,4.3-8.5,7.4c-2.2,3.2-3.3,7.5-3.3,12.7
			c-0.1,3.5,0.5,7,1.7,10.3c1,2.7,2.5,5.1,4.5,7.1c1.9,1.8,4.3,3.2,6.8,4c2.7,0.9,5.5,1.3,8.3,1.3c1.5,0,2.9-0.1,4.2-0.2
			c1.2,0.1,2.5-0.1,3.6-0.5v-44c-0.9-0.2-1.8-0.4-2.7-0.5C151,102.4,149.9,102.3,148.8,102.3"/>
		<path class="st1" d="M176.7,160.8c-5.2,2.2-10.7,3.8-16.3,4.8c-5.1,0.9-10.2,1.4-15.4,1.4c-7.4,0.1-14.8-1.4-21.5-4.5
			c-6.3-2.9-11.5-7.7-15.1-13.6c-3.7-6.1-5.5-13.7-5.5-22.8c-0.2-15.2,8-29.3,21.4-36.6c7-3.9,15.4-5.8,25.3-5.8
			c0.7,0,1.4,0,2.1,0.1c0.9,0.1,1.9,0.1,3.1,0.2V52.4c0-0.7,0.3-1.1,1-1.1h20.3c0.5-0.1,0.9,0.2,1,0.7v95.4c0,1.8,0.1,3.8,0.2,6
			s0.3,4.1,0.4,5.8C177.8,159.9,177.4,160.6,176.7,160.8 M87.2,164.2c0,1.1-0.5,1.6-1.4,1.6H66.2c-0.9,0-1.3-0.5-1.3-1.6v-103
			c0-0.9,0.5-1.3,1.4-1.3h19.5c0.6-0.1,1.2,0.3,1.3,1c0,0,0,0,0,0c0.1,0.1,0.1,0.2,0.1,0.3L87.2,164.2z M197.6,0h-155
			C42.6,0,0,0.1,0,0c0,0,0,46.5,0,46.5v145v42.5c0,0,42.5,0,42.5,0h197.6l-0.1-42.4c0,0,0,0,0-0.1V0L197.6,0
			C197.6,0,197.6,0,197.6,0"/>
	</g>
</g>
</svg>
